<?xml version="1.0" encoding="utf-8"?>
<!-- Generator: Adobe Illustrator 16.0.0, SVG Export Plug-In . SVG Version: 6.00 Build 0)  -->
<!DOCTYPE svg PUBLIC "-//W3C//DTD SVG 1.1//EN" "http://www.w3.org/Graphics/SVG/1.1/DTD/svg11.dtd">
<svg version="1.1" id="Layer_1" xmlns="http://www.w3.org/2000/svg" xmlns:xlink="http://www.w3.org/1999/xlink" x="0px" y="0px"
	 width="43.6793" height="30.6px" viewBox="0 90 873.586 612" enable-background="new 0 90 873.586 612" xml:space="preserve">
<g>
	<path fill="#ffffff" d="M856.08,185.76c-10.08-37.44-39.6-66.96-77.04-77.04C710.64,90,437.04,90,437.04,90s-273.6,0-342,18
		C58.32,118.08,28.08,148.32,18,185.76C0,254.16,0,396,0,396s0,142.56,18,210.24c10.08,37.439,39.6,66.96,77.04,77.04
		c69.12,18.72,342,18.72,342,18.72s273.6,0,342-18c37.439-10.08,66.96-39.6,77.04-77.04c18-68.4,18-210.24,18-210.24
		S874.8,254.16,856.08,185.76z"/>
	<polygon fill="#d59541" points="349.92,527.04 577.439,396 349.92,264.96 	"/>
</g>
</svg>
